<?xml version="1.0" encoding="utf-8"?>
<!-- Generator: Adobe Illustrator 27.4.0, SVG Export Plug-In . SVG Version: 6.00 Build 0)  -->
<svg version="1.1" id="_图层_2" xmlns="http://www.w3.org/2000/svg" xmlns:xlink="http://www.w3.org/1999/xlink" x="0px" y="0px"
	 viewBox="0 0 100 100" style="enable-background:new 0 0 100 100;" xml:space="preserve">
<style type="text/css">
	.st0{fill:#FFAAAA;}
	.st1{fill:#96D4FF;}
</style>
<g id="_图层_1-2">
	<path class="st0" d="M94,38.3l0.1,0.2l2.6-9.9c1.7-6.3,2.5-12.9,2.4-19.5L99,2.9l-5.7-0.4C86,2,78.7,2.6,71.7,4.3l-8.5,2l0,0
		C77.5,12.1,88.7,23.7,94,38.3L94,38.3z"/>
	<path class="st1" d="M40.3,59.1c0,0,20.1,23.7,40.3,4.3c9.3-8.9,11.6-22.4,6.8-33.8c1.6,5.5,0.6,11.1-3.1,14.6
		c-3.6,3.5-9.1,4.2-14.5,2.6c2,6.2,1,12.5-3.1,16.4C60.3,69.5,48.5,67.6,40.3,59.1c-8.1-8.5-9.5-20.4-3-26.6
		c4.2-4,10.6-4.7,16.8-2.3c-1.4-5.4-0.4-10.7,3.2-14.1c4-3.9,10.3-4.4,16.2-1.9C62,7.9,47.4,9.3,37.6,18.7
		C17.4,38.1,40.3,59.1,40.3,59.1L40.3,59.1z"/>
	<path class="st0" d="M39.2,60.9C34.2,55.6,24.1,57,15,65.8C5.8,74.5,0.9,97.7,0.9,97.7s23.3-4,32.4-12.8
		C42.5,76.2,44.3,66.2,39.2,60.9z"/>
	<path class="st0" d="M17.4,48c-4.4,1.5-6.6,4.6-5.7,7.2c0.9,2.5,4.6,3.6,9,2.1s9.6-8.6,9.6-8.6S21.9,46.5,17.4,48z"/>
	<path class="st0" d="M50.4,69.4c0,0-7.2,4.9-8.9,9.3c-1.7,4.4-0.8,8.1,1.7,9.1c2.5,1,5.7-1,7.4-5.4C52.2,78.1,50.4,69.4,50.4,69.4
		L50.4,69.4z"/>
	<path class="st0" d="M72.7,37.4c-7-1.8-5.8-12.5-5.8-12.5s-4.6,6.5-0.8,11.9c4.9,7,13.1,8.7,17.5,3.3c8.9-10.6-15.1-33.5-25.7-21.1
		c-4.9,5.7-1.1,12.2,2.6,21.2c5.1,12.4-3.2,20.1-9.3,18c-9.1-3.1-13.6-12.7-10-17.5c3.2-4.4,7.6-3.1,10.2-0.8
		c4.9,4.4,5.1,12.4,5.1,12.4s4.3-9-1.6-15.9c-6.2-7.2-15.4-4.6-17.9,3.3c-2.5,8,2.9,20.2,14.1,23.2c10.2,2.8,20.8-3.3,14.2-17.9
		c-6.4-14.3-5.3-25.4,5.2-23.7C82.5,23.5,81.8,39.8,72.7,37.4L72.7,37.4z"/>
</g>
</svg>
