<?xml version="1.0" standalone="no"?><!DOCTYPE svg PUBLIC "-//W3C//DTD SVG 1.1//EN" "http://www.w3.org/Graphics/SVG/1.1/DTD/svg11.dtd"><svg t="1680930287485" class="icon" viewBox="0 0 1024 1024" version="1.1" xmlns="http://www.w3.org/2000/svg" p-id="1116" xmlns:xlink="http://www.w3.org/1999/xlink" width="24" height="24"><path d="M972.8 346.98666667l-4.05333333-1.81333334c-31.14666667-14.4-83.30666667-38.50666667-152.42666667-28.69333333-20.37333333 2.88-40.96 8.64-61.65333333 17.17333333-16.21333333-46.08-61.01333333-155.62666667-139.62666667-226.56-6.29333333-5.65333333-14.4-8.74666667-22.82666667-8.74666666H235.09333333c-13.76 0-26.13333333 8.32-31.46666666 20.90666666-5.33333333 12.69333333-2.45333333 27.30666667 7.14666666 37.12 21.12 21.44 47.04 44.16 77.12 70.50666667 84.16 73.81333333 188.05333333 164.8 252.8 285.33333333-55.14666667 49.49333333-120.53333333 77.22666667-184.96 77.22666667-4.37333333 0-8.53333333 0.85333333-12.37333333 2.34666667-106.45333333-81.38666667-198.4-181.22666667-248.10666667-252.90666667-5.86666667-10.34666667-16.96-17.38666667-29.76-17.38666667-18.88 0-34.13333333 15.25333333-34.13333333 34.13333334v410.98666666c0 10.24 4.58666667 19.84 12.48 26.34666667 23.57333333 19.41333333 73.70666667 56.42666667 145.49333333 87.04 70.50666667 30.08 141.44 45.44 210.98666667 45.65333333h2.02666667c129.17333333 0 237.97333333-39.14666667 332.8-119.78666666 94.61333333-80.42666667 127.04-176.74666667 153.06666666-254.08 22.18666667-66.02666667 39.78666667-118.29333333 86.72-143.89333334 11.30666667-6.18666667 18.24-18.24 17.81333334-31.14666666-0.53333333-12.8-8.21333333-24.32-19.94666667-29.76zM332.90666667 175.57333333c-3.52-3.09333333-6.93333333-6.08-10.24-9.06666666h256.10666666c53.86666667 53.54666667 94.50666667 137.06666667 115.09333334 199.78666666 0 0.10666667 0.10666667 0.21333333 0.10666666 0.32-34.45333333 23.25333333-69.33333333 54.61333333-104.21333333 93.44C518.50666667 338.34666667 412.26666667 245.33333333 332.90666667 175.57333333z m69.33333333 681.81333334h-1.70666667c-119.25333333-0.32-231.14666667-53.97333333-300.90666666-107.2V454.50666667c66.45333333 77.12 159.14666667 164.90666667 259.52 232.21333333 74.66666667 50.02666667 145.38666667 83.41333333 210.13333333 99.2 22.08 5.33333333 43.30666667 8.64 63.78666667 9.92-67.94666667 41.28-144.10666667 61.54666667-230.82666667 61.54666667z m421.12-327.36c-20.26666667 60.05333333-40.96 121.81333333-87.78666667 178.45333333-40.96 21.76-91.52 25.6-150.29333333 11.30666667-48.64-11.84-101.86666667-35.52-158.72-70.61333334 73.92-17.6 144.53333333-62.29333333 200.74666667-128.42666666 69.65333333-81.92 136.53333333-127.89333333 198.72-136.74666667 24.85333333-3.52 46.72-0.85333333 65.92 4.37333333-33.81333333 38.61333333-50.88 89.17333333-68.58666667 141.65333334z" p-id="1117"></path></svg>