<?xml version="1.0" standalone="no"?><!DOCTYPE svg PUBLIC "-//W3C//DTD SVG 1.1//EN" "http://www.w3.org/Graphics/SVG/1.1/DTD/svg11.dtd"><svg t="1680930621693" class="icon" viewBox="0 0 1024 1024" version="1.1" xmlns="http://www.w3.org/2000/svg" p-id="1146" xmlns:xlink="http://www.w3.org/1999/xlink" width="24" height="24"><path d="M876.54197728 432.46356859H445.7196405c-13.2560719 0-33.14017975 19.88410785-33.14017975 33.14017976v86.16446735c0 19.88410785 19.88410785 33.14017975 33.14017975 33.14017977h271.74947397c19.88410785 0 33.14017975 19.88410785 33.14017975 33.14017973v26.51214382c0 59.65232355-53.02428761 106.0485752-106.0485752 106.0485752H299.90284958c-19.88410785 0-33.14017975-19.88410785-33.14017975-33.14017975V366.18320909C260.13463387 313.15892148 313.15892148 260.13463387 366.18320909 260.13463387h503.73073224c13.2560719 0 33.14017975-19.88410785 33.14017976-33.14017974V147.45802272c6.62803595-13.2560719-13.2560719-33.14017975-26.51214381-33.14017975H379.43928098C233.62249008 114.31784297 114.31784297 233.62249008 114.31784297 379.43928098v497.1026963c0 13.2560719 19.88410785 33.14017975 33.14017975 33.14017975h523.6148401c132.56071902 0 238.60929422-106.0485752 238.60929421-238.60929421V465.60374835c0-13.2560719-19.88410785-33.14017975-33.14017975-33.14017976z" p-id="1147"></path></svg>