<?xml version="1.0" encoding="UTF-8"?><svg id="a" xmlns="http://www.w3.org/2000/svg" viewBox="0 0 100 100.02"><defs><style>.g{fill:#633cdd;}.h{fill:#67a4de;}</style></defs><g id="b"><polygon id="c" class="g" points="40.77 44.84 50.79 39.62 50.79 56.16 40.77 61.38 40.77 44.84"/><path id="d" class="h" d="m61.04,47.56v10.3c-1.02.58-2.01,1.19-3.06,1.72-3.17,1.6-6.43,3.09-9.54,4.77-3.55,1.92-7.07,3.88-10.75,5.61-2.01.95-3.97,1.98-5.92,3.01-3.82,2.02-7.63,4.07-11.32,6.04l-9.01-4.89v.02l-.41-.24-.22-.12h0l-.23-.14v-4.42l-9.94-5.09-.64,14.72,20.96,11.01,50.14-26.54v-10.97l-10.07-4.79h.01Z"/><path id="e" class="g" d="m100,25.28l-.74-.38h-.16l-6.89-3.57v-.06l-2.01-1.04-.07.02-.21-.11s0-.04-.02-.06l-4.24-2.18c-.5-.24-1-.49-1.5-.74l-2.89-1.5c-.25-.14-.5-.28-.76-.42l-8.98-4.63-51.07,26.34v12.9l10.07,5.06.17-3.91h0l.15-3.53h0l.22-5.09,25.27-13.35.04-.02,15.16-8.01,7.21,3.91h0l1.11.6h0l.37.2-18.74,11.29,8.63,4.47c1.91,1.11,3.91,2.08,5.88,3.04l5.25,2.71v21.17l-39.86,21.68-5.4-3.07-9.88,5.45h0l14.79,7.57,18.32-9.5h0l5.02-2.6h0l6.15-3.19h0l4.46-2.31h0l7.49-3.88h0l9.16-4.75v-31.77l-9.87-5.17,18.36-11.57h.01Z"/><path id="f" class="h" d="m51.12,0L17.38,17.4l-.95.49h0L.07,26.33v31.46l7.7,4,2,1.04h0l6.23,3.24.92.48h0l8.84,4.59,9.6-4.9h0l.72-.36-6.24-3.24-3.5-1.82h0l-1.93-1h0l-1.91-.99-6.41-3.33h0l-1-.52-4.91-2.55v-20.4L51.42,10.61l3.8,2.38,10.43-5.34L51.12,0Z"/></g></svg>